<!DOCTYPE svg PUBLIC "-//W3C//DTD SVG 20010904//EN" "http://www.w3.org/TR/2001/REC-SVG-20010904/DTD/svg10.dtd">
<svg version="1.0" xmlns="http://www.w3.org/2000/svg" width="304px" height="234px" viewBox="0 0 3040 2340" preserveAspectRatio="xMidYMid meet">
<g id="layer101" fill="#2b1718" stroke="none">
<path d="M695 2155 c-133 -21 -207 -57 -291 -140 -65 -65 -102 -132 -128 -231 -14 -54 -16 -161 -16 -838 l0 -777 78 3 77 3 5 790 5 790 26 55 c35 74 67 111 128 143 98 54 134 57 766 57 628 0 673 -4 759 -54 61 -35 110 -94 137 -162 20 -52 23 -81 27 -251 l4 -193 154 0 c134 0 160 -3 193 -19 85 -44 93 -91 89 -526 -3 -323 -4 -342 -24 -380 -36 -69 -66 -79 -249 -85 l-160 -5 -3 -84 -3 -83 168 4 c145 4 176 8 227 28 79 30 146 97 175 173 20 56 21 73 21 481 l0 423 -30 61 c-62 122 -175 182 -347 182 l-53 0 0 68 c0 37 -5 97 -10 135 -36 250 -198 404 -456 436 -131 16 -1165 13 -1269 -4z"/>
<path d="M975 1870 c-266 -5 -282 -6 -322 -27 -28 -15 -52 -39 -70 -70 l-28 -48 -3 -732 -3 -732 42 -31 c50 -36 121 -70 209 -101 51 -18 93 -23 200 -26 132 -4 138 -4 260 32 230 69 255 75 330 91 54 12 115 15 225 12 132 -3 159 -7 229 -31 43 -15 80 -26 82 -24 2 2 4 65 5 140 0 92 5 139 12 144 7 4 78 6 158 4 185 -3 222 6 249 59 19 36 20 59 20 315 0 254 -2 279 -20 314 -10 21 -27 42 -37 47 -10 5 -99 11 -198 14 l-180 5 -5 255 c-5 273 -8 287 -62 337 -51 47 -98 53 -468 56 -190 1 -471 0 -625 -3z m844 -236 c47 -60 10 -144 -64 -144 -25 0 -44 8 -60 25 -56 55 -16 145 64 145 31 0 44 -6 60 -26z m-956 -66 c24 -32 17 -69 -19 -105 -21 -21 -32 -25 -65 -20 -50 7 -67 21 -74 61 -9 45 9 85 47 101 40 16 81 3 111 -37z m456 -434 c39 -33 42 -80 7 -121 -20 -22 -31 -27 -66 -26 -50 2 -65 13 -80 58 -9 27 -8 40 5 65 28 54 86 65 134 24z m1096 -82 c45 -33 55 -73 55 -210 0 -70 -5 -144 -11 -164 -12 -45 -68 -88 -114 -88 -47 0 -106 39 -121 80 -17 46 -18 278 -2 329 23 73 128 102 193 53z m-386 -38 c56 -71 -9 -159 -97 -134 -53 14 -77 73 -51 123 17 32 28 37 81 37 38 0 50 -5 67 -26z m-372 -428 c22 -19 28 -32 28 -66 0 -54 -29 -80 -90 -80 -37 0 -47 5 -64 29 -28 39 -26 73 5 110 33 39 80 42 121 7z m-744 -75 c60 -23 76 -88 35 -135 -35 -39 -78 -43 -116 -11 -17 14 -34 35 -37 46 -10 32 15 80 49 95 38 16 39 16 69 5z"/>
</g>
<g id="layer102" fill="#8f301e" stroke="none">
<path d="M1063 1872 l-193 -2 -1 -148 c-1 -81 0 -151 2 -157 1 -5 2 -23 2 -40 0 -16 -1 -249 -2 -517 0 -384 -3 -487 -13 -492 -7 -3 -3 -3 8 -1 25 7 65 -7 87 -30 40 -39 6 -127 -53 -140 l-30 -7 0 -113 c0 -134 -11 -125 157 -125 99 0 125 4 235 36 68 20 152 45 188 56 144 42 209 50 365 46 132 -3 159 -7 229 -31 43 -15 80 -26 82 -24 2 2 4 65 5 140 0 92 5 139 12 144 7 4 78 6 158 4 185 -3 222 6 249 59 19 36 20 59 20 315 0 254 -2 279 -20 314 -10 21 -27 42 -37 47 -10 5 -99 11 -198 14 l-180 5 -5 255 c-5 273 -8 287 -62 337 -51 47 -98 53 -468 56 -190 1 -432 1 -537 -1z m756 -238 c47 -60 10 -144 -64 -144 -25 0 -44 8 -60 25 -56 55 -16 145 64 145 31 0 44 -6 60 -26z m-500 -500 c39 -33 42 -80 7 -121 -20 -22 -31 -27 -66 -26 -50 2 -65 13 -80 58 -9 27 -8 40 5 65 28 54 86 65 134 24z m1096 -82 c45 -33 55 -73 55 -210 0 -70 -5 -144 -11 -164 -12 -45 -68 -88 -114 -88 -47 0 -106 39 -121 80 -17 46 -18 278 -2 329 23 73 128 102 193 53z m-386 -38 c56 -71 -9 -159 -97 -134 -53 14 -77 73 -51 123 17 32 28 37 81 37 38 0 50 -5 67 -26z m-372 -428 c22 -19 28 -32 28 -66 0 -54 -29 -80 -90 -80 -37 0 -47 5 -64 29 -28 39 -26 73 5 110 33 39 80 42 121 7z"/>
</g>
<g id="layer103" fill="#5a4a4a" stroke="none">
<path d="M868 1719 c-2 -83 0 -156 4 -162 4 -6 8 61 10 151 2 89 0 162 -4 162 -4 0 -8 -68 -10 -151z"/>
<path d="M2423 1605 c0 -44 2 -61 4 -37 2 23 2 59 0 80 -2 20 -4 1 -4 -43z"/>
<path d="M872 1500 c-1 -8 -2 -232 -2 -497 0 -381 -2 -482 -12 -486 -7 -3 -8 -6 -3 -6 29 -2 30 26 25 509 -3 272 -7 488 -8 480z"/>
<path d="M2343 1353 c43 -2 110 -2 150 0 40 1 5 3 -78 3 -82 0 -115 -2 -72 -3z"/>
<path d="M298 173 c23 -2 59 -2 80 0 20 2 1 4 -43 4 -44 0 -61 -2 -37 -4z"/>
<path d="M2343 173 c43 -2 110 -2 150 0 40 1 5 3 -78 3 -82 0 -115 -2 -72 -3z"/>
</g>
<g id="layer104" fill="#a2533d" stroke="none">
<path d="M1560 1872 c-6 -2 -10 -230 -10 -636 0 -491 -3 -635 -12 -646 -7 -8 -4 -7 8 3 29 24 78 21 111 -7 22 -19 28 -32 28 -66 0 -57 -31 -83 -95 -78 l-45 3 3 -113 3 -114 37 9 c20 4 114 8 207 8 160 0 175 -2 249 -28 43 -15 80 -26 82 -24 2 2 4 65 5 140 0 92 5 139 12 144 7 4 78 6 158 4 185 -3 222 6 249 59 19 36 20 59 20 315 0 254 -2 279 -20 314 -10 21 -27 42 -37 47 -10 5 -99 11 -198 14 l-180 5 -5 255 c-5 267 -7 277 -54 328 -44 49 -77 55 -299 61 -114 3 -212 5 -217 3z m259 -238 c47 -60 10 -144 -64 -144 -25 0 -44 8 -60 25 -56 55 -16 145 64 145 31 0 44 -6 60 -26z m596 -582 c45 -33 55 -73 55 -210 0 -70 -5 -144 -11 -164 -12 -45 -68 -88 -114 -88 -47 0 -106 39 -121 80 -17 46 -18 278 -2 329 23 73 128 102 193 53z m-386 -38 c56 -71 -9 -159 -97 -134 -53 14 -77 73 -51 123 17 32 28 37 81 37 38 0 50 -5 67 -26z"/>
<path d="M872 1708 c2 -164 5 -145 10 55 2 59 0 107 -4 107 -5 0 -7 -73 -6 -162z"/>
<path d="M1210 1510 c0 -281 3 -360 13 -360 9 0 11 77 9 360 -1 225 -6 360 -12 360 -6 0 -10 -133 -10 -360z"/>
<path d="M870 1014 c-3 -332 -2 -500 5 -498 9 4 10 455 2 864 -1 74 -5 -91 -7 -366z"/>
<path d="M1210 555 c0 -283 3 -435 10 -435 7 0 10 150 10 431 l0 430 21 -6 c15 -5 19 -4 15 4 -4 6 -18 11 -32 11 l-24 0 0 -435z"/>
<path d="M870 225 c0 -63 3 -115 8 -115 4 0 7 52 7 115 0 63 -3 115 -7 115 -5 0 -8 -52 -8 -115z"/>
</g>
<g id="layer105" fill="#d36b20" stroke="none">
<path d="M1560 1872 c-6 -2 -10 -230 -10 -636 l0 -632 38 4 c57 6 97 -31 97 -88 0 -55 -29 -80 -91 -80 l-44 0 0 -111 0 -111 38 8 c20 5 114 9 207 9 160 0 175 -2 249 -28 43 -15 80 -26 82 -24 2 2 4 65 5 140 0 92 5 139 12 144 7 4 78 6 158 4 185 -3 222 6 249 59 19 36 20 59 20 315 0 254 -2 279 -20 314 -10 21 -27 42 -37 47 -10 5 -99 11 -198 14 l-180 5 -5 255 c-5 267 -7 277 -54 328 -44 49 -77 55 -299 61 -114 3 -212 5 -217 3z m259 -238 c47 -60 10 -144 -64 -144 -25 0 -44 8 -60 25 -56 55 -16 145 64 145 31 0 44 -6 60 -26z m596 -582 c45 -33 55 -73 55 -210 0 -70 -5 -144 -11 -164 -12 -45 -68 -88 -114 -88 -47 0 -106 39 -121 80 -17 46 -18 278 -2 329 23 73 128 102 193 53z m-386 -38 c56 -71 -9 -159 -97 -134 -53 14 -77 73 -51 123 17 32 28 37 81 37 38 0 50 -5 67 -26z"/>
</g>
<g id="layer106" fill="#ec9713" stroke="none">
<path d="M1898 1860 c-1 -5 -2 -193 0 -417 l2 -408 54 3 c48 3 55 1 75 -24 26 -34 27 -74 1 -107 -24 -30 -56 -40 -98 -28 l-31 9 -3 -46 c-2 -26 -2 -171 0 -323 l3 -277 37 -7 c20 -3 70 -18 111 -31 40 -14 75 -23 77 -21 2 2 4 65 5 140 0 92 5 139 12 144 7 4 78 6 158 4 185 -3 222 6 249 59 19 36 20 59 20 315 0 254 -2 279 -20 314 -10 21 -27 42 -37 47 -10 5 -99 11 -198 14 l-180 5 -5 255 c-5 273 -8 287 -62 336 -41 38 -161 69 -170 44z m517 -808 c45 -33 55 -73 55 -210 0 -70 -5 -144 -11 -164 -12 -45 -68 -88 -114 -88 -47 0 -106 39 -121 80 -17 46 -18 278 -2 329 23 73 128 102 193 53z"/>
</g>
<g id="layer107" fill="#f6bc32" stroke="none">
<path d="M2255 1210 c16 -7 17 -9 3 -9 -14 -1 -17 -13 -17 -82 l0 -81 23 15 c30 20 96 38 96 26 0 -5 8 -9 18 -9 23 -1 56 -30 76 -68 12 -24 16 -60 16 -159 0 -159 -9 -195 -58 -228 -45 -30 -80 -32 -133 -4 l-41 20 3 -23 c2 -13 0 -29 -4 -35 -5 -7 -4 -13 2 -13 5 0 11 -19 13 -43 l3 -42 98 -3 c132 -4 171 8 197 59 19 37 20 57 20 316 -2 377 0 374 -219 372 -74 0 -109 -4 -96 -9z"/>
</g>


</svg>