<!DOCTYPE svg PUBLIC "-//W3C//DTD SVG 20010904//EN" "http://www.w3.org/TR/2001/REC-SVG-20010904/DTD/svg10.dtd">
<svg version="1.0" xmlns="http://www.w3.org/2000/svg" width="552px" height="326px" viewBox="0 0 5520 3260" preserveAspectRatio="xMidYMid meet">
<g id="layer101" fill="#2c1718" stroke="none">
<path d="M571 2944 c-25 -9 -56 -23 -69 -32 l-23 -15 20 -21 c20 -20 21 -20 71 -2 64 23 116 15 132 -19 15 -34 -6 -56 -105 -107 -62 -32 -82 -49 -93 -73 -35 -84 51 -175 149 -159 49 8 107 36 107 50 0 24 -38 37 -73 25 -39 -14 -95 -4 -107 20 -20 37 -11 50 64 84 103 47 146 86 146 135 0 47 -30 86 -84 111 -49 22 -77 23 -135 3z"/>
<path d="M995 2945 c-78 -28 -145 -124 -145 -209 0 -78 51 -161 121 -196 47 -25 137 -26 185 -4 146 69 166 287 35 378 -67 47 -126 56 -196 31z m146 -98 c67 -45 76 -145 18 -205 -73 -74 -190 -44 -220 58 -36 119 99 217 202 147z"/>
<path d="M1362 2738 l3 -223 35 0 35 0 5 185 5 185 88 3 87 3 0 34 0 35 -130 0 -130 0 2 -222z"/>
<path d="M1660 2950 c0 -5 5 -18 10 -28 6 -9 46 -102 90 -207 43 -104 85 -194 93 -199 20 -13 64 1 70 21 6 19 77 192 107 258 74 166 73 165 24 165 -33 0 -36 -3 -56 -50 l-21 -51 -100 3 -99 3 -18 45 c-16 42 -20 45 -59 48 -24 2 -41 -1 -41 -8z m273 -185 c-1 -11 -11 -41 -23 -67 -25 -57 -42 -55 -70 9 -34 76 -30 85 38 81 50 -3 57 -5 55 -23z"/>
<path d="M2162 2738 l3 -223 55 -3 c30 -2 84 -1 119 3 52 6 69 12 98 39 30 27 36 41 41 85 5 51 4 52 -43 97 l-47 45 51 74 c71 102 72 105 23 105 -37 0 -42 -4 -65 -42 -36 -62 -101 -128 -124 -128 -27 0 -33 18 -33 101 l0 69 -40 0 -40 0 2 -222z m212 -42 c32 -20 35 -65 7 -90 -14 -13 -33 -16 -77 -14 l-59 3 -3 49 c-5 73 0 79 58 74 27 -3 60 -12 74 -22z"/>
<path d="M2758 2950 c-14 -4 -45 -18 -67 -31 l-40 -22 21 -19 c25 -22 26 -22 71 -3 49 20 90 19 117 -3 40 -32 22 -64 -62 -107 -98 -50 -128 -80 -128 -123 0 -73 56 -122 137 -122 48 0 133 31 133 48 0 5 -11 14 -23 21 -19 10 -32 10 -64 1 -44 -14 -86 -1 -106 32 -16 24 6 45 88 83 94 44 125 75 125 125 0 87 -105 150 -202 120z"/>
<path d="M3166 2946 c-82 -31 -145 -121 -146 -209 0 -125 93 -217 220 -217 65 0 140 29 140 54 0 26 -28 40 -56 27 -38 -17 -130 -14 -160 6 -34 22 -64 83 -64 130 0 114 107 182 211 136 l45 -20 16 22 c17 22 16 23 -21 50 -48 33 -128 42 -185 21z"/>
<path d="M3449 2923 c-1 -21 -2 -120 -3 -221 -1 -166 1 -183 17 -188 9 -3 26 -2 37 1 18 6 20 15 20 83 0 42 4 83 9 90 5 9 29 12 82 10 l74 -3 3 -87 3 -88 39 0 40 0 0 221 0 220 -37 -3 -38 -3 -3 -85 c-2 -52 -8 -87 -15 -92 -19 -12 -132 -9 -145 4 -7 7 -12 44 -12 95 l0 83 -35 0 c-34 0 -35 -2 -36 -37z"/>
<path d="M3979 2946 c-166 -59 -205 -260 -73 -375 47 -42 73 -51 140 -51 121 0 207 89 208 215 1 73 -19 119 -73 168 -60 54 -130 69 -202 43z m132 -92 c40 -20 73 -93 65 -139 -12 -61 -73 -115 -131 -115 -103 0 -165 108 -119 205 28 59 120 83 185 49z"/>
<path d="M4338 2741 l-3 -218 80 -6 c168 -12 235 27 235 137 0 78 -54 122 -162 133 -35 3 -66 11 -70 17 -4 6 -8 44 -8 84 l0 72 -35 0 -34 0 -3 -219z m197 -35 c32 -14 35 -19 35 -55 0 -47 -8 -53 -80 -62 -66 -8 -80 1 -80 50 0 69 8 81 51 81 22 0 55 -7 74 -14z"/>
<path d="M4730 2742 l0 -219 70 -7 c81 -8 155 0 188 21 31 19 62 72 62 106 0 80 -62 133 -167 145 l-68 7 -5 80 -5 80 -37 3 -38 3 0 -219z m223 -53 c40 -49 7 -97 -68 -99 -27 -1 -56 -1 -62 -1 -14 1 -19 112 -5 125 4 5 32 6 62 3 40 -5 60 -12 73 -28z"/>
<path d="M2165 2235 c-133 -21 -207 -57 -291 -140 -65 -65 -102 -132 -128 -231 -14 -54 -16 -161 -16 -838 l0 -777 78 3 77 3 5 790 5 790 26 55 c35 74 67 111 128 143 98 54 134 57 766 57 628 0 673 -4 759 -54 61 -35 110 -94 137 -162 20 -52 23 -81 27 -251 l4 -193 154 0 c134 0 160 -3 193 -19 85 -44 93 -91 89 -526 -3 -323 -4 -342 -24 -380 -36 -69 -66 -79 -249 -85 l-160 -5 -3 -84 -3 -83 168 4 c145 4 176 8 227 28 79 30 146 97 175 173 20 56 21 73 21 481 l0 423 -30 61 c-62 122 -175 182 -347 182 l-53 0 0 68 c0 37 -5 97 -10 135 -36 250 -198 404 -456 436 -131 16 -1165 13 -1269 -4z"/>
<path d="M2445 1950 c-266 -5 -282 -6 -322 -27 -28 -15 -52 -39 -70 -70 l-28 -48 -3 -732 -3 -732 42 -31 c50 -36 121 -70 209 -101 51 -18 93 -23 200 -26 132 -4 138 -4 260 32 230 69 255 75 330 91 54 12 115 15 225 12 132 -3 159 -7 229 -31 43 -15 80 -26 82 -24 2 2 4 65 5 140 0 92 5 139 12 144 7 4 78 6 158 4 185 -3 222 6 249 59 19 36 20 59 20 315 0 254 -2 279 -20 314 -10 21 -27 42 -37 47 -10 5 -99 11 -198 14 l-180 5 -5 255 c-5 273 -8 287 -62 337 -51 47 -98 53 -468 56 -190 1 -471 0 -625 -3z m844 -236 c47 -60 10 -144 -64 -144 -49 0 -85 36 -85 85 0 50 36 85 89 85 31 0 44 -6 60 -26z m-956 -66 c24 -32 17 -69 -19 -105 -21 -21 -32 -25 -65 -20 -50 7 -67 21 -74 61 -9 45 9 85 47 101 40 16 81 3 111 -37z m456 -434 c39 -33 42 -80 7 -121 -20 -22 -31 -27 -66 -26 -50 2 -65 13 -80 58 -9 27 -8 40 5 65 28 54 86 65 134 24z m1096 -82 c45 -33 55 -73 55 -210 0 -70 -5 -144 -11 -164 -12 -45 -68 -88 -114 -88 -47 0 -106 39 -121 80 -17 46 -18 278 -2 329 23 73 128 102 193 53z m-386 -38 c56 -71 -9 -159 -97 -134 -53 14 -77 73 -51 123 17 32 28 37 81 37 38 0 50 -5 67 -26z m-372 -428 c22 -19 28 -32 28 -66 0 -54 -29 -80 -90 -80 -37 0 -47 5 -64 29 -28 39 -26 73 5 110 33 39 80 42 121 7z m-744 -75 c60 -23 76 -88 35 -135 -35 -39 -78 -43 -116 -11 -17 14 -34 35 -37 46 -10 32 15 80 49 95 38 16 39 16 69 5z"/>
</g>
<g id="layer102" fill="#8f301e" stroke="none">
<path d="M2531 1950 l-193 -5 2 -155 c3 -186 3 -113 1 -702 -1 -372 -4 -488 -14 -492 -7 -3 -2 -3 9 -1 25 7 65 -7 87 -30 40 -39 6 -127 -53 -140 -36 -8 -39 -17 -38 -133 0 -90 1 -94 25 -103 13 -5 75 -9 138 -9 101 0 127 4 237 36 68 20 152 45 188 56 144 42 209 50 365 46 132 -3 159 -7 229 -31 43 -15 80 -26 82 -24 2 2 4 65 5 140 0 92 5 139 12 144 7 4 78 6 158 4 185 -3 222 6 249 59 19 36 20 59 20 315 0 254 -2 279 -20 314 -10 21 -27 42 -37 47 -10 5 -99 11 -198 14 l-180 5 -5 255 c-5 273 -8 287 -62 337 -51 47 -98 53 -468 56 -190 1 -432 0 -539 -3z m758 -236 c47 -60 10 -144 -64 -144 -49 0 -85 36 -85 85 0 50 36 85 89 85 31 0 44 -6 60 -26z m-500 -500 c39 -33 42 -80 7 -121 -20 -22 -31 -27 -66 -26 -50 2 -65 13 -80 58 -9 27 -8 40 5 65 28 54 86 65 134 24z m1096 -82 c45 -33 55 -73 55 -210 0 -70 -5 -144 -11 -164 -12 -45 -68 -88 -114 -88 -47 0 -106 39 -121 80 -17 46 -18 278 -2 329 23 73 128 102 193 53z m-386 -38 c56 -71 -9 -159 -97 -134 -53 14 -77 73 -51 123 17 32 28 37 81 37 38 0 50 -5 67 -26z m-372 -428 c22 -19 28 -32 28 -66 0 -54 -29 -80 -90 -80 -37 0 -47 5 -64 29 -28 39 -26 73 5 110 33 39 80 42 121 7z"/>
</g>
<g id="layer103" fill="#544343" stroke="none">
<path d="M623 2953 c9 -2 25 -2 35 0 9 3 1 5 -18 5 -19 0 -27 -2 -17 -5z"/>
<path d="M1048 2953 c12 -2 30 -2 40 0 9 3 -1 5 -23 4 -22 0 -30 -2 -17 -4z"/>
<path d="M2793 2953 c9 -2 25 -2 35 0 9 3 1 5 -18 5 -19 0 -27 -2 -17 -5z"/>
<path d="M4028 2953 c12 -2 30 -2 40 0 9 3 -1 5 -23 4 -22 0 -30 -2 -17 -4z"/>
<path d="M4800 2917 c4 -41 5 -41 8 -8 2 18 0 37 -5 42 -5 5 -6 -11 -3 -34z"/>
<path d="M2165 2705 l0 -190 90 -1 90 0 -87 3 -88 4 -3 187 -3 187 1 -190z"/>
<path d="M4802 2840 c0 -19 2 -27 5 -17 2 9 2 25 0 35 -3 9 -5 1 -5 -18z"/>
<path d="M1813 2853 c9 -2 25 -2 35 0 9 3 1 5 -18 5 -19 0 -27 -2 -17 -5z"/>
<path d="M1898 2853 c12 -2 32 -2 45 0 12 2 2 4 -23 4 -25 0 -35 -2 -22 -4z"/>
<path d="M4448 2783 c12 -2 32 -2 45 0 12 2 2 4 -23 4 -25 0 -35 -2 -22 -4z"/>
<path d="M4848 2783 c12 -2 32 -2 45 0 12 2 2 4 -23 4 -25 0 -35 -2 -22 -4z"/>
<path d="M4803 2645 c0 -27 2 -38 4 -22 2 15 2 37 0 50 -2 12 -4 0 -4 -28z"/>
<path d="M3442 2650 c0 -19 2 -27 5 -17 2 9 2 25 0 35 -3 9 -5 1 -5 -18z"/>
<path d="M1383 2513 c9 -2 25 -2 35 0 9 3 1 5 -18 5 -19 0 -27 -2 -17 -5z"/>
<path d="M4458 2513 c12 -2 30 -2 40 0 9 3 -1 5 -23 4 -22 0 -30 -2 -17 -4z"/>
<path d="M4833 2513 c15 -2 39 -2 55 0 15 2 2 4 -28 4 -30 0 -43 -2 -27 -4z"/>
<path d="M2338 1799 c-2 -83 0 -156 4 -162 4 -6 8 61 10 151 2 89 0 162 -4 162 -4 0 -8 -68 -10 -151z"/>
<path d="M3893 1685 c0 -44 2 -61 4 -37 2 23 2 59 0 80 -2 20 -4 1 -4 -43z"/>
<path d="M2342 1580 c-1 -8 -2 -232 -2 -497 0 -381 -2 -482 -12 -486 -7 -3 -8 -6 -3 -6 29 -2 30 26 25 509 -3 272 -7 488 -8 480z"/>
<path d="M3813 1433 c43 -2 110 -2 150 0 40 1 5 3 -78 3 -82 0 -115 -2 -72 -3z"/>
<path d="M1768 253 c23 -2 59 -2 80 0 20 2 1 4 -43 4 -44 0 -61 -2 -37 -4z"/>
<path d="M3813 253 c43 -2 110 -2 150 0 40 1 5 3 -78 3 -82 0 -115 -2 -72 -3z"/>
</g>
<g id="layer104" fill="#a2533d" stroke="none">
<path d="M3030 1952 c-6 -2 -10 -230 -10 -636 0 -491 -3 -635 -12 -646 -7 -8 -4 -7 8 3 29 24 78 21 111 -7 22 -19 28 -32 28 -66 0 -57 -31 -83 -95 -78 l-45 3 3 -113 3 -114 37 9 c20 4 114 8 207 8 160 0 175 -2 249 -28 43 -15 80 -26 82 -24 2 2 4 65 5 140 0 92 5 139 12 144 7 4 78 6 158 4 185 -3 222 6 249 59 19 36 20 59 20 315 0 254 -2 279 -20 314 -10 21 -27 42 -37 47 -10 5 -99 11 -198 14 l-180 5 -5 255 c-5 267 -7 277 -54 328 -44 49 -77 55 -299 61 -114 3 -212 5 -217 3z m259 -238 c47 -60 10 -144 -64 -144 -49 0 -85 36 -85 85 0 50 36 85 89 85 31 0 44 -6 60 -26z m596 -582 c45 -33 55 -73 55 -210 0 -70 -5 -144 -11 -164 -12 -45 -68 -88 -114 -88 -47 0 -106 39 -121 80 -17 46 -18 278 -2 329 23 73 128 102 193 53z m-386 -38 c56 -71 -9 -159 -97 -134 -53 14 -77 73 -51 123 17 32 28 37 81 37 38 0 50 -5 67 -26z"/>
<path d="M2342 1788 c2 -164 5 -145 10 55 2 59 0 107 -4 107 -5 0 -7 -73 -6 -162z"/>
<path d="M2680 1590 c0 -281 3 -360 13 -360 9 0 11 77 9 360 -1 225 -6 360 -12 360 -6 0 -10 -133 -10 -360z"/>
<path d="M2340 1094 c-3 -332 -2 -500 5 -498 9 4 10 455 2 864 -1 74 -5 -91 -7 -366z"/>
<path d="M2680 635 c0 -283 3 -435 10 -435 7 0 10 150 10 431 l0 430 21 -6 c15 -5 19 -4 15 4 -4 6 -18 11 -32 11 l-24 0 0 -435z"/>
<path d="M2340 305 c0 -63 3 -115 8 -115 4 0 7 52 7 115 0 63 -3 115 -7 115 -5 0 -8 -52 -8 -115z"/>
</g>
<g id="layer105" fill="#d36a1f" stroke="none">
<path d="M3030 1952 c-6 -2 -10 -230 -10 -636 l0 -632 38 4 c57 6 97 -31 97 -88 0 -55 -29 -80 -91 -80 l-44 0 0 -111 0 -111 38 8 c20 5 114 9 207 9 160 0 175 -2 249 -28 43 -15 80 -26 82 -24 2 2 4 65 5 140 0 92 5 139 12 144 7 4 78 6 158 4 185 -3 222 6 249 59 19 36 20 59 20 315 0 254 -2 279 -20 314 -10 21 -27 42 -37 47 -10 5 -99 11 -198 14 l-180 5 -5 255 c-5 267 -7 277 -54 328 -44 49 -77 55 -299 61 -114 3 -212 5 -217 3z m259 -238 c47 -60 10 -144 -64 -144 -49 0 -85 36 -85 85 0 50 36 85 89 85 31 0 44 -6 60 -26z m596 -582 c45 -33 55 -73 55 -210 0 -70 -5 -144 -11 -164 -12 -45 -68 -88 -114 -88 -47 0 -106 39 -121 80 -17 46 -18 278 -2 329 23 73 128 102 193 53z m-386 -38 c56 -71 -9 -159 -97 -134 -53 14 -77 73 -51 123 17 32 28 37 81 37 38 0 50 -5 67 -26z"/>
</g>
<g id="layer106" fill="#ec9713" stroke="none">
<path d="M3370 1943 c-1 -5 -1 -174 0 -378 0 -203 0 -388 0 -410 l0 -40 54 3 c48 3 55 1 75 -24 26 -34 27 -74 1 -107 -24 -30 -56 -40 -97 -28 -30 9 -31 8 -36 -33 -3 -22 -4 -52 -2 -66 2 -14 4 -140 4 -281 l1 -257 38 -7 c20 -3 70 -18 111 -31 40 -14 75 -23 77 -21 2 2 4 65 5 140 0 92 5 139 12 144 7 4 78 6 158 4 185 -3 222 6 249 59 19 36 20 59 20 315 0 254 -2 279 -20 314 -10 21 -27 42 -37 47 -10 5 -99 11 -198 14 l-180 5 -5 255 c-5 273 -8 287 -62 336 -38 36 -167 71 -168 47z m515 -811 c45 -33 55 -73 55 -210 0 -70 -5 -144 -11 -164 -12 -45 -68 -88 -114 -88 -47 0 -106 39 -121 80 -17 46 -18 278 -2 329 23 73 128 102 193 53z"/>
</g>
<g id="layer107" fill="#f6bc32" stroke="none">
<path d="M3725 1290 c16 -7 17 -9 3 -9 -14 -1 -17 -13 -17 -82 l0 -81 23 15 c30 20 96 38 96 26 0 -5 8 -9 18 -9 23 -1 56 -30 76 -68 12 -24 16 -60 16 -159 0 -159 -9 -195 -58 -228 -45 -30 -80 -32 -133 -4 l-41 20 3 -23 c2 -13 0 -29 -4 -35 -5 -7 -4 -13 2 -13 5 0 11 -19 13 -43 l3 -42 98 -3 c132 -4 171 8 197 59 19 37 20 57 20 316 -2 377 0 374 -219 372 -74 0 -109 -4 -96 -9z"/>
</g>


</svg>